<?xml version="1.0" encoding="iso-8859-1"?>
<!-- Generator: Adobe Illustrator 18.0.0, SVG Export Plug-In . SVG Version: 6.00 Build 0)  -->
<!DOCTYPE svg PUBLIC "-//W3C//DTD SVG 1.1//EN" "http://www.w3.org/Graphics/SVG/1.1/DTD/svg11.dtd">
<svg version="1.1" id="Capa_1" xmlns="http://www.w3.org/2000/svg" xmlns:xlink="http://www.w3.org/1999/xlink" x="0px" y="0px"
	 viewBox="0 0 296 296" style="enable-background:new 0 0 296 296;" xml:space="preserve">
<path d="M148,0C66.393,0,0,66.393,0,148s66.393,148,148,148s148-66.393,148-148S229.607,0,148,0z M223.407,110.008l-11.011,53.934
	c-2.817,13.799-4.237,27.848-4.237,41.932c0,20.493-16.673,37.166-37.166,37.166H137.34c-11.397,0-21.539-5.459-27.961-13.895
	l-55.675-57.829c-5.375-5.583-5.207-14.466,0.377-19.842c5.584-5.375,14.467-5.206,19.842,0.377l23.462,24.369
	c0.837,0.869,2.135,1.107,3.226,0.591c1.091-0.516,1.73-1.671,1.589-2.869L91.241,80.953c-0.907-7.697,4.597-14.672,12.294-15.579
	c7.697-0.909,14.672,4.598,15.579,12.294l5.315,45.108c0.116,0.987,0.982,1.712,1.974,1.654c0.992-0.058,1.767-0.88,1.767-1.874
	V66.993c0-7.75,6.283-14.033,14.033-14.033c7.75,0,14.033,6.283,14.033,14.033v56.453c0,1.214,0.957,2.212,2.17,2.264
	c1.213,0.052,2.251-0.862,2.354-2.071l3.929-46.159c0.658-7.722,7.456-13.45,15.173-12.792c7.722,0.658,13.45,7.451,12.792,15.173
	l-4.614,54.201c-0.097,1.14,0.711,2.157,1.844,2.321c1.132,0.163,2.195-0.585,2.424-1.705l6.079-29.775
	c1.411-6.909,8.162-11.358,15.063-9.956C220.359,96.356,224.816,103.1,223.407,110.008z"/>
<g>
</g>
<g>
</g>
<g>
</g>
<g>
</g>
<g>
</g>
<g>
</g>
<g>
</g>
<g>
</g>
<g>
</g>
<g>
</g>
<g>
</g>
<g>
</g>
<g>
</g>
<g>
</g>
<g>
</g>
</svg>
