<?xml version="1.0" encoding="iso-8859-1"?>
<!-- Generator: Adobe Illustrator 18.0.0, SVG Export Plug-In . SVG Version: 6.00 Build 0)  -->
<!DOCTYPE svg PUBLIC "-//W3C//DTD SVG 1.1//EN" "http://www.w3.org/Graphics/SVG/1.1/DTD/svg11.dtd">
<svg version="1.1" id="Capa_1" xmlns="http://www.w3.org/2000/svg" xmlns:xlink="http://www.w3.org/1999/xlink" x="0px" y="0px"
	 viewBox="0 0 297 297" style="enable-background:new 0 0 297 297;" xml:space="preserve">
<g>
	<path d="M49.682,136.749c-4.012-3.292-9.934-2.71-13.228,1.303c-2.46,2.998-3.817,5.015-3.964,5.235
		c-2.874,4.311-1.71,10.123,2.593,13.009c1.604,1.076,3.421,1.59,5.218,1.59c3.026,0,5.999-1.457,7.815-4.152
		c0.01-0.015,1.011-1.492,2.869-3.757C54.277,145.965,53.694,140.042,49.682,136.749z"/>
	<path d="M156.417,134.825c-2.443-3.259-4.904-6.126-7.526-8.765c-3.659-3.686-9.608-3.702-13.291-0.045
		c-3.684,3.657-3.703,9.608-0.045,13.291c2.002,2.016,3.905,4.238,5.821,6.793c1.847,2.464,4.669,3.763,7.527,3.763
		c1.962,0,3.939-0.612,5.631-1.879C158.687,144.87,159.53,138.978,156.417,134.825z"/>
	<path d="M72.295,110.482c-3.484,1.462-6.968,3.236-10.353,5.276c-4.446,2.678-5.88,8.454-3.202,12.9
		c1.765,2.93,4.873,4.552,8.06,4.552c1.65,0,3.323-0.436,4.84-1.35c2.61-1.572,5.277-2.933,7.927-4.044
		c4.786-2.008,7.039-7.516,5.031-12.303C82.591,110.728,77.085,108.473,72.295,110.482z"/>
	<path d="M173.021,161.834c-2.696-4.437-8.478-5.848-12.913-3.153c-4.436,2.696-5.848,8.477-3.153,12.913
		c2.208,3.633,4.178,6.586,6.201,9.291c1.846,2.47,4.672,3.771,7.534,3.771c1.958,0,3.933-0.609,5.621-1.872
		c4.157-3.107,5.008-8.997,1.899-13.155C176.557,167.417,174.908,164.94,173.021,161.834z"/>
	<path d="M235.643,205.11c0.419,0,0.843-0.028,1.269-0.086c1.906-0.257,3.881-0.555,5.869-0.887
		c5.12-0.854,8.579-5.697,7.726-10.816c-0.855-5.121-5.7-8.581-10.817-7.726c-1.797,0.3-3.576,0.569-5.29,0.801
		c-5.145,0.693-8.752,5.426-8.058,10.57C226.977,201.684,231.011,205.11,235.643,205.11z"/>
	<path d="M234.589,124.235c1.835,1.834,4.24,2.752,6.646,2.752c2.405,0,4.811-0.918,6.646-2.752l1.082-1.083l1.081,1.083
		c1.836,1.834,4.24,2.752,6.646,2.752c2.405,0,4.811-0.918,6.646-2.752c3.671-3.671,3.671-9.622,0-13.293l-1.081-1.082l1.081-1.081
		c3.671-3.671,3.671-9.622,0-13.292s-9.62-3.67-13.292,0l-1.081,1.081l-1.082-1.081c-3.672-3.67-9.621-3.67-13.292,0
		s-3.671,9.621,0,13.292l1.082,1.081l-1.082,1.082C230.918,114.613,230.918,120.564,234.589,124.235z"/>
	<path d="M293.677,33.139c-2.108-1.786-4.898-2.553-7.62-2.1l-91.189,15.198l-34.122-5.687c-4.063-0.675-8.105,1.377-9.951,5.067
		l-2.294,4.587l-4.238-8.478c-1.345-2.689-3.895-4.573-6.861-5.068l-33.722-5.62c-1.031-0.172-2.071-0.167-3.08,0
		c-0.004,0.001-0.007-0.001-0.01,0L7.854,46.494C3.321,47.25,0,51.171,0,55.765V256.69c0,2.763,1.215,5.386,3.323,7.171
		c1.71,1.449,3.867,2.228,6.075,2.228c0.515,0,1.031-0.042,1.546-0.128l38.185-6.364c3.434-0.572,6.269-2.996,7.37-6.299
		l1.008-3.021l0.553,1.105c1.846,3.691,5.888,5.744,9.951,5.067l34.122-5.687l91.19,15.198c0.514,0.086,1.03,0.128,1.545,0.128
		c0.518,0,1.031-0.047,1.538-0.13c0.002,0,0.004,0.002,0.006,0.002l50.583-8.43c2.966-0.495,5.517-2.379,6.861-5.067l2.835-5.669
		l1.104,2.209c1.846,3.69,5.888,5.745,9.951,5.068l21.4-3.566c4.533-0.756,7.854-4.677,7.854-9.272V40.309
		C297,37.547,295.785,34.924,293.677,33.139z M64.172,221.575c-1.7-3.399-5.281-5.458-9.073-5.171
		c-3.791,0.269-7.048,2.797-8.249,6.402l-6.394,19.179l-21.658,3.609V63.727l73.936-12.322v181.867l-20.966,3.494L64.172,221.575z
		 M111.532,125.582c0.603,0.163,1.206,0.331,1.807,0.516c0.919,0.281,1.849,0.416,2.762,0.416c4.021,0,7.74-2.599,8.982-6.643
		c1.523-4.962-1.264-10.22-6.226-11.743c-2.427-0.745-4.878-1.344-7.325-1.823V51.405l18.057,3.009l10.505,21.011
		c1.592,3.184,4.846,5.195,8.406,5.195c3.56,0,6.814-2.012,8.406-5.195l7.597-15.191l20.965,3.494v181.867l-73.936-12.322V125.582z
		 M278.202,233.272l-6.699,1.117l-6.406-12.813c-1.593-3.185-4.847-5.196-8.406-5.196c-3.559,0-6.814,2.012-8.407,5.195
		l-9.101,18.201l-34.917,5.818v-40.22c0.146,0.007,0.294,0.018,0.439,0.018c4.527,0,8.517-3.28,9.267-7.895
		c0.832-5.123-2.648-9.951-7.771-10.783c-0.654-0.106-1.297-0.227-1.934-0.354V63.727l73.936-12.322V233.272z"/>
</g>
<g>
</g>
<g>
</g>
<g>
</g>
<g>
</g>
<g>
</g>
<g>
</g>
<g>
</g>
<g>
</g>
<g>
</g>
<g>
</g>
<g>
</g>
<g>
</g>
<g>
</g>
<g>
</g>
<g>
</g>
</svg>
